# xmcd
#
# Track frame offsets:
#	150
#	14135
#	28590
#	40289
#	52003
#	65157
#	77649
#	88354
#	98705
#	113287
#	125189
#	136558
#	147687
#	159739
#	170890
#	181996
#	196193
#	208840
#	223690
#	239557
#	254557
#	269028
#	279379
#	290405
#	300394
#
# Disc length: 4182 seconds
#
# Revision: 1
# Processed by: cddbd v1.5.1PL0 Copyright (c) Steve Scherf et al.
# Submitted via: audiograbber 1.83.01
#
DISCID=8d105419
DTITLE=Various Artist - 100 Country Greats
DYEAR=1900
DGENRE=Country
TTITLE0=A Moment Isn't Very Long   -   Willie Nelson
TTITLE1=Behind Closed Doors   -   Ed Bruce
TTITLE2=Your Tender Years   -   George Jones
TTITLE3=Listen To A Country  Song   -   Lynn Anderson
TTITLE4=Red Sails In The Sunset    -   Slim Whitman
TTITLE5=Sunshine   -   Billie Jo Spears
TTITLE6=We All Got To Help Each Other   -   Kenny Rogers
TTITLE7=Money   -    Waylon Jennings 
TTITLE8=Jealousy   -   Frankie Laine
TTITLE9=Ease The Want In Me   -   Billie Jo Spears
TTITLE10=King Of The Road   -   Ed Bruce
TTITLE11=The Wayward Wind   -   Slim Whitman
TTITLE12=What Am I Gonna Do   -   Kenny Rogers
TTITLE13=Someday Soon   -   Lynn Anderson
TTITLE14=A Stranger In My Arms   -   Patsy Cline
TTITLE15=Rainy Day  Blues   -   Wille Nelson
TTITLE16=He's On The Run Again   -   Billie Jo Spears
TTITLE17=Faithless Love    -   Lynn Anderson
TTITLE18=Good Lady Of Toronto   -   Kenny Rogers
TTITLE19=Jezebel   -   Frankie Laine
TTITLE20=What  Can You Do To Me Now   -   Willie Nelson
TTITLE21=Lorena   -   Waylon Jennings
TTITLE22=Don't Ever Leave Me Again   -   Patsy Cline
TTITLE23=Healing Hands Of Time   -   Willie Nelson
TTITLE24=Till I Waltz Again With You   -   Slim Whitman   
EXTD=
EXTT0=
EXTT1=
EXTT2=
EXTT3=
EXTT4=
EXTT5=
EXTT6=
EXTT7=
EXTT8=
EXTT9=
EXTT10=
EXTT11=
EXTT12=
EXTT13=
EXTT14=
EXTT15=
EXTT16=
EXTT17=
EXTT18=
EXTT19=
EXTT20=
EXTT21=
EXTT22=
EXTT23=
EXTT24=
PLAYORDER=
